<?xml version="1.0" encoding="utf-8"?>
<!-- Generator: Adobe Illustrator 19.2.1, SVG Export Plug-In . SVG Version: 6.00 Build 0)  -->
<svg version="1.1" id="layer" xmlns="http://www.w3.org/2000/svg" xmlns:xlink="http://www.w3.org/1999/xlink" x="0px" y="0px"
	 viewBox="0 0 652 652" style="enable-background:new 0 0 652 652;" xml:space="preserve">
<style type="text/css">
	.st0{fill:#0052A0;}
	.st1{fill:none;stroke:#FFFFFF;stroke-width:3.5381;stroke-miterlimit:10;}
	.st2{fill:#FFFFFF;}
	.st3{fill:none;stroke:#FFFFFF;stroke-width:1.106;}
	.st4{fill:none;stroke:#FFFFFF;stroke-width:1.106;stroke-linecap:square;stroke-miterlimit:2;}
</style>
<rect x="192.1" y="239.1" class="st0" width="428.9" height="164.9"/>
<rect x="192.1" y="239.1" class="st1" width="428.9" height="164.9"/>
<g>
	<path class="st2" d="M334.3,303.9h-7.6v-33.1H342c3.9,0.2,7,3,7.6,6.2c0.6,2.6,0.2,3.3,0.1,4.8c-0.5,4.1-3.3,5.8-5.4,6.7l-0.5,0.2
		c3.9,1.7,5.4,6.4,6.2,10.2c0.4,1.6,0.7,3.1,0.8,4.9h-7.6c-0.4-3.2-1-6.4-2.2-9.5c-0.6-1.8-1.7-3-3.1-3h-3.6V303.9z"/>
</g>
<polygon class="st2" points="227.7,270.7 239.1,270.7 246,292.8 252.5,270.7 264,270.7 264.9,303.9 257.2,303.9 256.5,277.2 
	248.4,303.9 241.1,303.9 233.1,278.2 231.8,303.9 226.3,303.9 "/>
<polygon class="st2" points="280.5,298.1 294.3,298.1 294.3,303.8 272.9,303.8 272.9,270.7 293.3,270.7 293.3,276.3 280.5,276.3 
	280.5,284.1 291.1,284.1 291.1,289.4 280.5,289.4 "/>
<polygon class="st2" points="454.3,303.9 454.3,270.7 461.9,270.7 461.9,298.1 474.2,298.1 474.2,303.9 "/>
<polygon class="st2" points="487.5,270.7 487.5,303.9 479.6,303.9 479.6,270.7 "/>
<polygon class="st2" points="509.3,303.9 501.6,303.9 501.6,276.3 493.1,276.3 493.1,270.7 517.7,270.7 517.7,276.3 509.3,276.3 "/>
<polygon class="st2" points="554.2,270.8 562.5,270.8 575.4,295.7 575.4,270.7 581.5,270.7 581.5,303.9 571.4,303.9 560.2,282.1 
	560.2,303.9 554.2,303.9 "/>
<g>
	<path class="st0" d="M338.4,275.7c3,0.4,3.5,1.8,3.8,3.2c0.2,1.9,0.3,4-0.8,5.6c-1.6,1.9-4.5,1.7-7.1,1.6v-10.3
		C335.6,275.7,336.8,275.8,338.4,275.7"/>
	<path class="st2" d="M279.1,331.7c0,0,7.7-1,12.5-1.2c4.8-0.2,9.1,0.1,9.1,0.1l3.7,0.5c5.3,1.3,11.8,4.1,12.7,10.4
		c1.4,5.9-1.3,10.8-5.5,13.9c-1.5,1-2.8,1.8-5.2,2.5c-4.2,1.5-9.7,0.9-14.6,0.8l0,11.2H279L279.1,331.7z"/>
	<path class="st2" d="M483.9,343.5c-4.1-4.3-10.2-5.8-15.5-3.6c-3.4,1.4-5,3-6.3,7.3c-1.3,4.6-0.2,11.6,3.9,14.7
		c4.3,3.2,11.7,3.3,16.5,0.7c1.1-0.6,1.8-1,1.8-1l2.6,7.4c-2.7,1.9-6.1,2.5-9.7,3.2c-2.7,0.5-7.3,0.5-12.1-0.3
		c-6-1.3-11.8-4.2-14.8-10.2c-2.6-5.5-3-15,0.5-20.1c3.3-5.9,7-8.1,12.7-9.9c4.3-1,9.2-0.9,12.4-0.5c3.1,0.4,7.6,1.7,10.5,3.4
		L483.9,343.5z"/>
</g>
<polygon class="st2" points="395,331.6 395,361.8 413.9,361.8 413.9,369.8 382,369.8 382,331.6 "/>
<rect x="424.4" y="331.6" class="st2" width="12.9" height="38.2"/>
<polygon class="st2" points="531.2,331.6 531.2,338.7 531.2,338.7 512.1,338.7 512.1,346.8 526.5,346.8 526.5,353.6 512.1,353.6 
	512.1,361.8 532.6,361.8 532.6,369.8 499.5,369.8 499.5,331.6 "/>
<g>
	<path class="st0" d="M303.3,343.6c0.1,3.1-0.5,5.1-3,6.8c-2.9,1.7-6,1.7-8.6,0.1v-12.1c2.4-1.5,6.3-1.5,8.7-0.1
		C301.9,339.1,303.3,340.4,303.3,343.6"/>
</g>
<polygon class="st2" points="527.2,270.7 516.8,303.9 524.6,303.9 527.1,296.2 537.4,296.2 539.8,303.9 547.6,303.9 537.2,270.7 "/>
<polygon class="st0" points="535.7,290.8 528.5,290.8 532.1,278.2 "/>
<polygon class="st2" points="313.7,303.9 306,303.9 306,276.3 297.5,276.3 297.5,270.8 322.1,270.8 322.1,276.3 313.7,276.3 "/>
<g>
	<path class="st2" d="M399.3,292.2v11.7h-7.6v-33.1h13.2c6.8,0,9.6,3.7,9.6,11.2C414.5,288,410.5,292.9,399.3,292.2L399.3,292.2z"/>
	<path class="st0" d="M402.6,275.6c3,0.4,4,1.9,4.3,3.3c0.4,1.7,0.7,3.9-0.9,5.9c-1.6,1.9-4.2,1.8-6.9,1.7v-10.9
		C400.6,275.6,401.1,275.6,402.6,275.6"/>
	<path class="st2" d="M384.3,287c0,4-0.8,8.1-2.5,10.9c-3,4.8-6.8,6.2-11.5,6.2h0c-4.7,0-8.5-1.4-11.5-6.2
		c-1.7-2.8-2.6-6.9-2.5-10.9v0.5c0-4,0.8-8.1,2.5-10.9c3-4.8,6.8-6.2,11.5-6.2h0c4.7,0,8.5,1.4,11.5,6.2c1.7,2.8,2.6,6.9,2.5,10.9
		V287z"/>
	<path class="st0" d="M376.6,287c0,1.6,0,3.1-0.2,4.4c-0.6,3.4-2,7.2-6.2,7.2h0c-4.2,0-5.6-3.7-6.2-7.2c-0.2-1.3-0.2-2.8-0.2-4.4
		v0.5c0-1.6,0-3.1,0.2-4.4c0.6-3.4,2-7.2,6.2-7.2h0c4.2,0,5.6,3.7,6.2,7.2c0.2,1.3,0.2,2.8,0.2,4.4V287z"/>
	<path class="st2" d="M447.1,287c0,4-0.8,8.1-2.5,10.9c-3,4.8-6.8,6.2-11.5,6.2h0c-4.7,0-8.5-1.4-11.5-6.2
		c-1.7-2.8-2.6-6.9-2.5-10.9v0.5c0-4,0.8-8.1,2.5-10.9c3-4.8,6.8-6.2,11.5-6.2h0c4.7,0,8.5,1.4,11.5,6.2c1.7,2.8,2.6,6.9,2.5,10.9
		V287z"/>
	<path class="st0" d="M439.4,287c0,1.6,0,3.1-0.2,4.4c-0.6,3.4-2,7.2-6.2,7.2h0c-4.2,0-5.6-3.7-6.2-7.2c-0.2-1.3-0.2-2.8-0.2-4.4
		v0.5c0-1.6,0-3.1,0.2-4.4c0.6-3.4,2-7.2,6.2-7.2h0c4.2,0,5.6,3.7,6.2,7.2c0.2,1.3,0.2,2.8,0.2,4.4V287z"/>
	<path class="st2" d="M370.9,352.6c0,0.9-0.1,2.1-0.2,2.9c-0.3,1.2-0.7,3.3-1.3,4.5c-2.6,6.8-9.2,10.7-16,12
		c-1.4,0.3-3.1,0.4-4.7,0.4l-0.1,0c-1.6,0-3.3-0.2-4.7-0.4c-6.8-1.3-13.3-5.2-16-12c-0.6-1.3-1-3.4-1.3-4.5c-0.1-0.9-0.2-2.2-0.2-3
		V351c0-0.9,0.1-2,0.2-2.9c0.3-1.2,0.7-3.3,1.3-4.5c2.6-6.8,9.2-10.6,16-12c1.4-0.3,3.1-0.4,4.7-0.4l0.1,0c1.6,0,3.3,0.2,4.7,0.4
		c6.8,1.3,13.3,5.2,16,12c0.6,1.3,1,3.4,1.3,4.5c0.1,0.9,0.2,2,0.2,2.8V352.6z"/>
	<path class="st0" d="M358.1,352.5c0,1.5-0.8,11.5-9.5,11.6l-0.1,0c-8.7-0.1-9.6-10.3-9.6-11.7v-1.3c0-1.5,0.9-11.5,9.6-11.6l0.1,0
		c8.7,0.1,9.5,10.2,9.5,11.7V352.5z"/>
</g>
<polygon class="st0" points="191.5,239.1 191.5,404 20.9,404 20.9,239.1 "/>
<polygon class="st1" points="191.5,239.1 191.5,404 20.9,404 20.9,239.1 "/>
<g>
	<path class="st2" d="M104.3,253.4c-0.8,0.4-1,1.2-1,2.4c3.4,0,7-3.8,10.5-0.4c1.7,2,1.7,3.4,1.5,5.3c-0.2,2.1-0.8,3.3-1.4,5.3
		c-0.2,0.5-0.6,1.5-1.5,1.1c-1-0.4-1.1-0.8-0.8-1.8c0.4-1.1,2.6-4.6,1.8-7.4c-0.3-1-1-2.1-2.7-2.3c-1.9-0.1-5.4,2.1-7,2.8l0,6.8
		l-2.6,0v-6.8c-2.6-1.1-5.6-4-8.6-1.9c-1.4,1.1-1.4,2.8-1.2,4.5c0.4,1.7,1.1,2.8,1.7,4.3c0.3,0.8,0,1.3-0.4,1.6c0,0-0.8,0.5-1.5,0
		c-0.9-0.7-3-7.2-0.8-10.3c1.2-1.5,2.6-2.3,4.2-2.3c2.6-0.2,4.4,1.6,7,1.7c0.1-0.9,0-1.9-1-2.3c0-1.8,0.9-2.6,1.9-3.3
		C103.4,250.7,104.3,251.4,104.3,253.4"/>
	<path class="st3" d="M104.3,253.6c-0.8,0.4-1,1.2-1,2.3c3.3,0,6.8-3.7,10.3-0.4c1.7,1.9,1.6,3.3,1.4,5.1c-0.2,2.1-0.8,3.2-1.4,5.1
		c-0.2,0.5-0.6,1.4-1.5,1c-0.9-0.4-1.1-0.8-0.8-1.7c0.4-1.1,2.6-4.4,1.8-7.1c-0.3-1-0.9-2-2.7-2.2c-1.9-0.1-5.3,2-6.9,2.7l0,6.5
		l-2.5,0v-6.6c-2.6-1-5.5-3.9-8.4-1.8c-1.4,1-1.4,2.7-1.2,4.3c0.4,1.6,1.1,2.7,1.7,4.1c0.3,0.8,0,1.3-0.4,1.6c0,0-0.8,0.5-1.4,0
		c-0.8-0.7-3-6.9-0.8-10c1.2-1.4,2.6-2.3,4.1-2.3c2.6-0.2,4.3,1.5,6.9,1.6c0.1-0.9,0-1.8-1-2.2c0-1.8,0.9-2.5,1.9-3.1
		C103.4,251.1,104.2,251.7,104.3,253.6z"/>
	<path class="st2" d="M112.1,268.1c0.4,0.2,0.5,0.9,0.3,1.3l-0.2,0c-6-1.2-14.2-1.1-20,0c-0.4-0.6,0.2-1.3,0.8-1.5
		C98.6,265.9,106.3,265.9,112.1,268.1"/>
	<path class="st4" d="M111.8,268c0.4,0.2,0.5,0.7,0.3,1.1l-0.2,0c-5.8-0.9-13.7-0.9-19.4,0c-0.4-0.5,0.2-1,0.8-1.2
		C98.8,266.3,106.2,266.2,111.8,268z"/>
	<path class="st2" d="M145.6,271.3c0.1,0.3,0.8,2.3-1,2.6c-3.1,0.1-2-3.4-5.4-4c-4.4-0.6-6,4.8-7.9,7.9c-2.8,5.3-6.5,12.5-13.1,12.9
		c-2.2,0-4-0.4-5.6-1.9c-0.4-0.6,0.2-1.3,0.8-1.5c1,0,1.6,1.1,2.6,1.5c1.6,0.4,3.5,0.4,4.8-0.8c4.8-5.1,6.6-11.5,11.5-16.9
		c2.6-2.6,6-3.8,9.6-2.8C143.3,268.7,144.8,269.6,145.6,271.3"/>
	<path class="st4" d="M145.4,271.5c0.1,0.3,0.8,2.2-1,2.5c-3.1,0.1-2-3.3-5.3-3.9c-4.3-0.6-5.9,4.7-7.8,7.7
		c-2.8,5.2-6.4,12.2-12.9,12.6c-2.2,0-3.9-0.4-5.5-1.9c-0.4-0.6,0.2-1.2,0.8-1.5c1,0,1.5,1.1,2.6,1.5c1.6,0.4,3.4,0.4,4.7-0.8
		c4.7-5,6.5-11.3,11.3-16.4c2.6-2.5,5.9-3.7,9.5-2.7C143,269,144.6,269.8,145.4,271.5z"/>
	<path class="st2" d="M84,287.8c1.2,1.2,5.9,0.9,4.8,2.7c-2.5,1.5-6.9,0-11-6.3c-3-4.7-6.9-12.7-9.8-14.2c-1-0.4-2.2-0.2-3.5,0.4
		c-1.8,1.1-2,4.9-4.8,3.2c-0.6-0.4-0.7-1.6-0.2-2.3c2-3,5.8-3.8,9-2.8c5.5,1.3,7.8,8.2,10.9,12.8C80.8,283.9,81.6,286.1,84,287.8"/>
	<path class="st4" d="M83.9,287.6c1.1,1.2,5.7,0.9,4.7,2.6c-2.5,1.4-6.7,0-10.8-6.1c-3-4.6-6.8-12.4-9.6-13.9
		c-1-0.4-2.2-0.2-3.4,0.4c-1.8,1-2,4.8-4.7,3.1c-0.6-0.4-0.7-1.6-0.2-2.3c2-2.9,5.7-3.7,8.9-2.7c5.4,1.3,7.7,8,10.6,12.5
		C80.7,283.8,81.5,286,83.9,287.6z"/>
	<path class="st2" d="M123.7,271.1c1.6,1.9,0.6,4.5,0.6,6.8c0,0.4,0.2,1.3-0.6,1.5c-0.8,0-1-1.3-1.2-1.9c-0.4-2.3,0.2-5.7-2-6.6
		c-0.8-0.3-1.4-0.2-1.8,0.2c-1.6,1.3,0.6,5.2-2.4,4c-0.9-0.4-0.4-2.3,0-3.2c0.6-1.3,1.8-2.1,3.2-2.3
		C121.1,269.4,122.7,269.8,123.7,271.1"/>
	<path class="st3" d="M123.5,271.3c1.5,1.8,0.6,4.2,0.6,6.4c0,0.4,0.2,1.2-0.6,1.4c-0.8,0-0.9-1.2-1.1-1.8c-0.4-2.2,0.2-5.3-1.9-6.2
		c-0.7-0.3-1.3-0.2-1.7,0.2c-1.5,1.2,0.6,4.9-2.2,3.8c-0.9-0.4-0.4-2.2,0-3c0.6-1.2,1.7-2,3-2.2C121,269.7,122.5,270.1,123.5,271.3z
		"/>
	<path class="st2" d="M88.7,271.7c0.6,0.9,0.8,2.1,0.4,3.2c-0.2,0.6-1.1,0.7-1.6,0.2c-1-1.3,0-4.3-1.8-4.5c-4.2-0.5-1.4,6.6-4.2,8.7
		c-1.2,0,0-2.1-0.8-4c-0.4-1.3-0.2-2.8,0.4-3.8c0.8-1.1,1.7-1.5,2.9-1.7C85.5,269.5,87.7,270,88.7,271.7"/>
	<path class="st3" d="M88.4,271.9c0.6,0.8,0.8,2,0.4,3c-0.2,0.6-1,0.7-1.5,0.2c-0.9-1.2,0-4-1.7-4.2c-3.9-0.4-1.3,6.2-3.9,8.2
		c-1.1,0,0-2-0.7-3.8c-0.4-1.2-0.2-2.6,0.4-3.6c0.7-1,1.5-1.4,2.7-1.6C85.5,269.8,87.5,270.3,88.4,271.9z"/>
	<path class="st2" d="M112.3,271.5c0.4,0.5,0.2,0.8,0,1c-6.6-0.4-12.8-0.3-19.9,0c-0.4-0.2,0-0.8,0.2-1.1c5.4-1.9,14.3-1.7,19.2-0.2
		L112.3,271.5z"/>
	<path class="st4" d="M112,271.4c0.4,0.4,0.2,0.6,0,0.8c-6.4-0.3-12.4-0.2-19.3,0c-0.4-0.2,0-0.7,0.2-0.8c5.3-1.5,13.9-1.3,18.7-0.2
		L112,271.4z"/>
	<path class="st2" d="M104.2,274c1,0.3,3.3,0.7,6.4,4c0.5,0.7-0.7,2.4-1.7,1.7c-1.8-1.1-1.5-1.2-3.4-2.5c-2.1-1.1-3.3-0.4-5,0.5
		l-3.9,2.3c-0.7,0.5-1.9-0.3-2.1-1c-0.3-1.5,2-2.5,3.4-3.4C101.7,273.6,102.3,273.9,104.2,274"/>
	<path class="st2" d="M141.9,280.1c2.1,0.8,3.2,3.8,2.4,5.6c-0.4,0.8-1.2,2.3-2.2,2.3c-0.8,0-1.2-0.4-1.6-1
		c-0.7-1.9,3.2-2.5,1.9-5.1c-0.8-1.1-1.7-1.2-2.7-0.5c-3.2,2.6-5.9,7.9-10.4,5.5l-0.2-0.3c0-0.9,1.5-0.2,2.6-0.8
		c3.2-2.1,5.6-7.6,10.1-5.9L141.9,280.1z"/>
	<path class="st3" d="M141.7,280.4c2,0.7,3.1,3.5,2.3,5.3c-0.4,0.8-1.2,2.2-2.1,2.2c-0.8,0-1.1-0.3-1.5-0.9
		c-0.7-1.8,3.1-2.4,1.9-4.8c-0.7-1-1.6-1.2-2.6-0.5c-3.1,2.4-5.7,7.4-10,5.2l-0.2-0.2c0-0.9,1.5-0.2,2.5-0.8c3.1-2,5.4-7.1,9.7-5.5
		L141.7,280.4z"/>
	<path class="st2" d="M76,286.6l0.2,0.2c-0.6,1.1-1.3,1-2.5,1c-5.2,0-5.7-7.6-10.3-5.9c-1.2,0.7-1.6,1.7-1,2.8
		c0.8,0.9,2.4,0.9,2.6,2.1c-0.2,0.8-0.8,1.5-1.8,1.5c-1-0.2-1.8-1.3-2.2-2.3c-0.4-1.1-0.2-2.8,0.4-3.8c1.4-1.9,3.8-2.1,5.8-1.5
		C70.4,281.9,72.2,287,76,286.6"/>
	<path class="st3" d="M75.6,286.4l0.2,0.2c-0.6,1-1.3,0.9-2.4,0.9c-5,0-5.4-7-9.9-5.5c-1.2,0.7-1.5,1.6-1,2.6c0.8,0.8,2.3,0.8,2.5,2
		c-0.2,0.8-0.8,1.4-1.7,1.4c-1-0.2-1.7-1.2-2.1-2.2c-0.4-1-0.2-2.6,0.4-3.6c1.3-1.8,3.7-2,5.6-1.4C70.2,282.1,72,286.8,75.6,286.4z"
		/>
	<path class="st2" d="M104.8,289.1l-1.6,0.8l-6.9,3.5c-1.8-1.5-3.6-3-5.2-4.3c-0.4-0.6-0.4-1.1-0.2-1.3c0.5-0.7,0.9-0.6,1.8,0l3.7,3
		l7.3-3.7C104.5,286.9,105.4,288.3,104.8,289.1"/>
	<path class="st3" d="M104.5,289.2l-1.6,0.8l-6.6,3.2c-1.8-1.4-3.5-2.7-5-3.8c-0.4-0.6-0.4-1-0.2-1.2c0.5-0.6,0.8-0.5,1.7,0l3.6,2.7
		l7-3.3C104.2,287.2,105.1,288.5,104.5,289.2z"/>
	<path class="st2" d="M85.7,307.6c2.3-0.2,6.6,0.5,7.4-1c0.8,1.3,2.2,2.7,3.6,2.7c4.4,0.4,8.9-7.6,15.1-5.7c0,0-5.6-3.1-3.3-9.4
		c0.6-1.3,0.8-2.3,2.8-3.8c0,0,1-0.7,0.6,0.6c-1,2.1-2.3,4.8-1.6,7.5c1.3,4.3,5.4,3.6,4.5,6.3c-0.6,1-2.7,0.6-4.4,0.7
		c-5.8-0.4-9.3,8.3-15,5.7l-2.8-1.4l-14.9,0l0,14.4c2.6,2.3,3.2,5.5,3.2,8.9c0,0.9-0.7,1.6-1.6,1.7c-1.8,0-4.8,0.7-5.2-1.7
		c-0.4-1.7,0.2-4.5-2-5.1c-0.6-0.2-1.9-0.5-2.3,0.2c-0.4,0.8-0.3,1.9-1.5,2.3c-4.2,0.6-4.6-4.5-6.6-6.8c-0.6-0.4-1-1.1-0.8-1.7
		c0.4-0.8,1.2-0.6,1.8-0.4c2.2,1.9,2.2,5.1,4.4,6.8c1.8,0,0.6-2.2,2.1-2.4c2-0.4,3.8,0.1,5.2,1.1c1.2,1.5,1.2,3.6,1.6,5.3
		c0.2,0.8,1.9,0.9,2.8,0.6c0.9-0.4,0.8-1.4,0.1-4c-1-4.8-8.8-4.9-12-9.8c-0.8-1.1-1.6-2.6-1-4c0.6-1.3,2-0.9,2.8-1.5
		c0.6-0.8-2-3.7-1.4-4.5c4-2.8,8.8-6.4,10.4-11.3c0.6-1.5-1.8-2.5-1.6-3.4l2-1.9c1,0,1.1,2.5,1.8,2l0.9-1.1c0.9-0.6,2.8,1.1,3.6,2.3
		c1.3,2,1.8,4.6,1,5.1c-1.2,1-1.2,1.7-0.6,3.1L85.7,307.6z"/>
	<path class="st3" d="M85.7,307.7c2.3-0.2,6.5,0.5,7.3-1c0.8,1.3,2.1,2.7,3.5,2.7c4.4,0.4,8.8-7.5,14.9-5.6c0,0-5.5-3-3.3-9.3
		c0.6-1.3,0.8-2.3,2.7-3.7c0,0,1-0.7,0.6,0.6c-1,2.1-2.2,4.7-1.5,7.4c1.3,4.2,5.3,3.5,4.4,6.3c-0.6,1-2.6,0.6-4.3,0.7
		c-5.8-0.4-9.2,8.2-14.8,5.6l-2.8-1.4l-14.7,0l0,14.2c2.6,2.3,3.2,5.5,3.2,8.8c0,0.8-0.7,1.6-1.6,1.7c-1.8,0-4.7,0.7-5.2-1.7
		c-0.4-1.7,0.2-4.4-2-5c-0.6-0.2-1.9-0.5-2.3,0.2c-0.4,0.8-0.3,1.9-1.5,2.3c-4.2,0.6-4.6-4.4-6.6-6.7c-0.6-0.4-1-1.1-0.8-1.7
		c0.4-0.8,1.2-0.6,1.8-0.4c2.2,1.9,2.2,5,4.4,6.7c1.8,0,0.6-2.2,2-2.4c1.9-0.4,3.7,0.1,5.1,1.1c1.2,1.5,1.2,3.6,1.6,5.3
		c0.2,0.8,1.9,0.9,2.7,0.6c0.9-0.4,0.7-1.4,0.1-4c-1-4.7-8.7-4.8-11.9-9.7c-0.8-1.1-1.6-2.5-1-4c0.6-1.3,2-0.8,2.8-1.5
		c0.6-0.8-2-3.7-1.4-4.4c4-2.7,8.7-6.3,10.3-11.1c0.6-1.5-1.8-2.5-1.6-3.4l2-1.9c1,0,1.1,2.4,1.7,2l0.9-1.1c0.9-0.6,2.8,1.1,3.6,2.3
		c1.2,2,1.7,4.5,1,5c-1.2,1-1.2,1.7-0.6,3L85.7,307.7z"/>
	<path class="st2" d="M149.1,292.8c2.7,0,7-0.5,8,0.9c0.8,1.3,0.6,3.7,1.8,4c1.4,0.2,3.1,0,3.7,1.5c0.7,2.2,0.3,3.4-0.3,4.9
		c-0.4,0.8-1.2,1.6-2.1,2.2c0,2.1,1.4,5.3,0.3,6.7c-0.4,0.6-1.7,0-1.7,0.6c0.3,2.5,0.6,5.6-0.8,8c-1.4,1.3-3-1.2-3.4,0.2
		c0.6,8.3,2.8,15.4,7.5,21.8c1.8,2.1,4.4,3.6,7,2.3c1.2-0.6,2-2.1,2.2-3.4c0.2-7.2-7.8-11.1-9.2-17.7c-0.8-3-0.2-6.2,1.8-8.3
		c2.2-2.1,5.8-2.6,8.6-1.5c1,0.2,1.9,1.1,2,2.6c0,1-0.2,2.1-1.4,2.3c-1,0.2-2.4,0.2-2.8-1.1c-0.2-1.1-1-1.6-2-1.7
		c-1.4,0-2.6,0.6-3.4,1.7c-1.9,3-0.2,6.8,1.4,9.4c3.4,5.5,10.6,11.1,6.4,18.1c-1.2,1.7-2.7,2.6-4.5,2.8c-3.2,0.2-5.6-1.3-7.6-3.7
		c-1.6,2.8-0.6,6.4,0.8,8.9c3,4.4,7.2,10.6,5.6,14c-1,1.3-3.4-1.1-3.2,1.7v9.8c-0.1,2.4-3,1.6-4.4,1.5c-0.6-0.2-0.9-1.3-0.5-2
		c0.6-0.9,2.6,0.3,2.7-0.8c0.4-3.4,0-7,0.4-10.6c0.2-0.9,0.8-1.5,1.6-1.5c0.6-0.2,1.4,0.4,1.6-0.4c-1.2-7.2-9.6-11.7-7.4-20l1-3.2
		c-3.8-6.9-6.2-14-6.2-22.1c0.2-0.9,0.2-1.7,1-1.9c1.4-0.2,2.8,1.2,3.3,0.6c0.8-2.3-0.1-4.9-0.3-7.2c0.2-1.5,2.6,0.2,2.4-1.7l-1-4.9
		c1-0.9,2.6-1.7,2.8-3.4c0.4-1.3-0.2-2.8-1.6-2.8c-1.6,0.2-3-0.6-3.2-2.1c-0.2-1.1-0.3-2.3-1.8-2.3c-1.8-0.2-3.8-0.2-5.4,0
		c-0.8-0.8-1.6-2.1-2.8-1.7c-1.4,0.9-2,2.1-2.2,3.6l0.2,2.3c-1.3,1.2-4.6,2.6-4.2,4c0.4,1.1,2,1.1,1.6,2.3c-0.8,0.8-1.6,0.5-2.7-0.3
		c-1.3-0.9-1.2-2.6-0.6-3.4c0.8-1.7,2.6-2.7,4.1-3.5c-0.4-1.9,0-3.8,1-5.3c0.8-1.1,1.8-1.9,2.8-2.1
		C147.5,290.6,148.5,291.9,149.1,292.8"/>
	<path class="st3" d="M149.2,293c2.7,0,6.9-0.5,7.9,0.8c0.8,1.3,0.6,3.7,1.8,4c1.4,0.2,3,0,3.6,1.5c0.7,2.2,0.3,3.4-0.2,4.9
		c-0.4,0.8-1.2,1.6-2,2.2c0,2.1,1.4,5.2,0.3,6.6c-0.4,0.6-1.7,0-1.6,0.6c0.3,2.5,0.6,5.6-0.8,7.9c-1.4,1.3-3-1.2-3.4,0.2
		c0.6,8.2,2.8,15.3,7.3,21.6c1.8,2.1,4.3,3.6,6.9,2.3c1.2-0.6,2-2.1,2.2-3.4c0.2-7.2-7.7-11-9.1-17.6c-0.8-3-0.2-6.1,1.8-8.2
		c2.2-2.1,5.7-2.5,8.5-1.5c1,0.2,1.9,1.1,2,2.6c0,1-0.2,2-1.4,2.2c-1,0.2-2.4,0.2-2.8-1.1c-0.2-1.1-1-1.6-2-1.7
		c-1.4,0-2.6,0.6-3.4,1.7c-1.9,3-0.2,6.8,1.4,9.3c3.4,5.5,10.5,11,6.3,18c-1.2,1.7-2.6,2.6-4.4,2.8c-3.2,0.2-5.5-1.3-7.5-3.7
		c-1.6,2.8-0.6,6.3,0.8,8.9c3,4.3,7.1,10.5,5.5,14c-1,1.3-3.4-1.1-3.2,1.7v9.7c-0.1,2.3-3,1.6-4.3,1.5c-0.6-0.2-0.9-1.3-0.5-1.9
		c0.6-0.8,2.6,0.3,2.7-0.8c0.4-3.4,0-7,0.4-10.6c0.2-0.8,0.8-1.5,1.6-1.5c0.6-0.2,1.4,0.4,1.6-0.4c-1.2-7.2-9.5-11.6-7.3-19.9l1-3.2
		c-3.7-6.9-6.1-14-6.1-22c0.2-0.8,0.2-1.7,1-1.9c1.4-0.2,2.7,1.2,3.2,0.6c0.8-2.3-0.1-4.8-0.3-7.2c0.2-1.5,2.6,0.2,2.4-1.7l-1-4.9
		c1-0.8,2.6-1.7,2.8-3.4c0.4-1.3-0.2-2.7-1.6-2.7c-1.6,0.2-3-0.6-3.2-2.1c-0.2-1.1-0.3-2.3-1.8-2.3c-1.8-0.2-3.8-0.2-5.3,0
		c-0.8-0.8-1.6-2.1-2.8-1.7c-1.4,0.8-2,2.1-2.2,3.6l0.2,2.3c-1.3,1.2-4.5,2.6-4.2,4c0.4,1.1,2,1.1,1.6,2.3c-0.8,0.8-1.6,0.5-2.7-0.3
		c-1.2-0.9-1.2-2.6-0.6-3.4c0.8-1.7,2.5-2.7,4.1-3.5c-0.4-1.9,0-3.8,1-5.3c0.8-1.1,1.8-1.9,2.8-2.1
		C147.6,290.9,148.6,292.2,149.2,293z"/>
	<path class="st2" d="M61.9,293.2c1.2,1.5,1.4,3.6,1.2,5.5c1.6,0.6,3.4,2.1,4,3.8c1.2,2.3-1.4,3-2.4,3.4c-0.4,0.2-1-0.2-1-0.6
		c-0.2-1.3,2.3-1,1.5-2.6c-0.8-1.9-2.9-2.3-4.1-3.4c0.6-1.7,0.4-3.8-0.8-5.1c-0.6-0.6-1.5-1.6-2.6-0.6c-1.7,2.9-4.9,0.8-7.1,1.2
		c-2.3,0.4-1,4.3-4.2,4.5c-0.8,0.2-2.2,0.2-2.4,1.5c-0.3,1.4,0.5,3,1.8,3.8c2.5,1.1,1.1,2.9,0.5,4.8c-0.3,0.9-0.6,1.8,0.2,2
		c0.8,0.2,2-0.3,2,1c-0.2,2.3-0.8,6.8,0.1,7.3c0.8,0.4,2.1-1.8,3.2-0.6c0.8,1.3,0.6,3.2,0.4,4.9c-0.4,4.7-1.6,8.9-3.4,13l-2.6,6.2
		c1.6,3.4,1.4,8.5-0.4,11.7c-2,3.8-6.4,8.6-6,11.5c-0.1,0.8,3.1-0.9,3.2,1.3c0.2,3.6,0.2,7.4,0.4,11.1c0.1,1,2.6-0.4,2.8,1.3
		c0,1,0,1.5-1.2,1.5c-1.4,0-3.8,0.5-3.8-1.9L41,369.2c-0.3-1.7-2.6,0.8-3.2-1.1c-1.4-8.9,10.1-13.6,6.7-22.8l-0.7,0.9
		c-2.2,2.6-4.7,3.3-8.1,2.2c-2.6-1.1-4.2-3.2-4.4-6.4c0.2-8.3,9.9-12.5,9.7-20.8c0-1.5-0.8-3-2.2-3.6c-0.8-0.6-2.2-0.6-3.2,0
		c-1.2,0.6-0.8,2.3-2.4,2.6c-1.1,0.3-2.4-0.2-2.6-1.5c-0.2-1.2,0-2.7,1.4-3.4c2.6-1.3,6.4-1.1,8.8,0.6c2.4,2.1,3,5.7,2,8.7
		c-1.2,6-7.6,9.8-9,15.5c-0.4,1.7,0,3.2,0.8,4.5c1,1.3,2.2,1.7,3.6,1.7c4-0.4,6.1-4.3,7.7-7.5c2.4-5.1,4.4-10.5,4.6-16.4
		c0.5-2.6-2.9,1-3.5-0.8c-1.2-2.6-0.8-5.8-0.5-8.4c-0.8-0.2-2.4-0.1-2.4-1.4c0-1.9,1.1-4.2,0.8-5.3c-1.2-1.1-2.3-2.5-2.8-4.5
		c-0.2-1.3-0.2-2.6,0.7-3.4c1.4-1.3,4.3,0,4.3-2.7c0.3-1.2,0.5-2.6,2.2-3c2.2-0.4,5.6,0.6,6.4,0c0.8-0.6,1.4-1.9,2.6-1.9
		C59.7,291,61.1,291.9,61.9,293.2"/>
	<path class="st3" d="M61.7,293.5c1.2,1.5,1.4,3.6,1.2,5.5c1.6,0.6,3.4,2.1,4,3.8c1.2,2.2-1.4,2.9-2.4,3.4c-0.4,0.2-1-0.2-1-0.6
		c-0.2-1.3,2.3-1,1.5-2.6c-0.8-1.9-2.9-2.3-4-3.3c0.6-1.7,0.4-3.8-0.8-5.1c-0.6-0.6-1.5-1.6-2.6-0.6c-1.7,2.9-4.8,0.8-7,1.2
		c-2.2,0.4-1,4.2-4.1,4.5c-0.8,0.2-2.1,0.2-2.3,1.5c-0.3,1.4,0.5,3,1.7,3.8c2.5,1.1,1.1,2.9,0.5,4.8c-0.3,0.9-0.6,1.8,0.2,2
		c0.8,0.2,2-0.3,2,1c-0.2,2.3-0.8,6.7,0.1,7.2c0.8,0.4,2.1-1.8,3.2-0.5c0.8,1.3,0.6,3.2,0.4,4.9c-0.4,4.7-1.6,8.9-3.4,12.9l-2.6,6.1
		c1.6,3.4,1.4,8.5-0.4,11.6c-2,3.8-6.3,8.5-5.9,11.4c-0.1,0.8,3-0.9,3.2,1.3c0.2,3.6,0.2,7.4,0.4,11c0.1,1,2.6-0.4,2.8,1.3
		c0,1,0,1.5-1.2,1.5c-1.4,0-3.7,0.5-3.8-1.9L41.2,369c-0.3-1.7-2.6,0.8-3.2-1.1c-1.4-8.9,9.9-13.5,6.6-22.6l-0.7,0.9
		c-2.2,2.5-4.6,3.3-8,2.2c-2.6-1.1-4.1-3.2-4.4-6.3c0.2-8.2,9.8-12.4,9.6-20.7c0-1.5-0.8-3-2.2-3.6c-0.8-0.6-2.2-0.6-3.2,0
		c-1.2,0.6-0.8,2.3-2.3,2.6c-1.1,0.3-2.4-0.2-2.6-1.5c-0.2-1.2,0-2.6,1.4-3.4c2.6-1.3,6.3-1.1,8.7,0.6c2.4,2.1,3,5.7,2,8.7
		c-1.2,5.9-7.5,9.7-8.9,15.4c-0.4,1.7,0,3.2,0.8,4.4c1,1.3,2.2,1.7,3.6,1.7c3.9-0.4,6-4.2,7.6-7.4c2.4-5.1,4.4-10.4,4.6-16.3
		c0.5-2.6-2.8,1-3.5-0.8c-1.2-2.5-0.8-5.8-0.4-8.3c-0.8-0.2-2.3-0.1-2.3-1.4c0-1.9,1-4.2,0.8-5.3c-1.2-1.1-2.3-2.5-2.8-4.4
		c-0.2-1.3-0.2-2.6,0.7-3.4c1.4-1.3,4.2,0,4.3-2.7c0.3-1.2,0.5-2.6,2.2-3c2.2-0.4,5.5,0.6,6.3,0c0.8-0.6,1.4-1.9,2.6-1.9
		C59.6,291.3,60.9,292.2,61.7,293.5z"/>
	<path class="st2" d="M105.2,294.5l-2.3,1.3l-5.1,2.9c0.8,0.9,1.6,2,0.8,3.1c-0.8,1.3-1.5,2.3-2.9,3.1c-0.6,0.2-1.4-0.3-1.4-1
		c0.4-1.7,3-2.4,1.9-4l-4.6-4.9c-0.4-0.5-0.5-0.7-0.2-1.3c0.5-0.5,0.9-0.5,1.6,0.3l3.2,2.7l7.5-4C105.5,291.8,106.1,294,105.2,294.5
		"/>
	<path class="st3" d="M104.9,294.7l-2.2,1.3l-4.9,2.8c0.8,0.8,1.6,1.9,0.8,3c-0.8,1.2-1.4,2.2-2.7,3c-0.6,0.2-1.3-0.3-1.3-0.9
		c0.4-1.6,2.9-2.3,1.8-3.8l-4.4-4.7c-0.4-0.5-0.5-0.7-0.2-1.3c0.5-0.5,0.9-0.5,1.5,0.2l3,2.6l7.2-3.8
		C105.2,292.1,105.7,294.2,104.9,294.7z"/>
	<path class="st2" d="M59.1,299.3c-0.5,1.2-1.9,1.1-2.6,2.4c-0.5,0.2-0.8-0.7-0.8-0.7c-0.3-2,2.1-3,3.4-3.5
		C59.2,297.7,59.4,299.1,59.1,299.3"/>
	<path class="st4" d="M58.8,299.4c-0.4,1-1.6,1-2.2,2.1c-0.4,0.2-0.7-0.6-0.7-0.6c-0.2-1.7,1.7-2.5,2.8-3
		C58.9,298.1,59,299.2,58.8,299.4z"/>
	<path class="st2" d="M53.1,303.4c0.4,0.9-1,0.2-2.4,0.8c-0.3,0.2-1.4,0.7-2.1,0l-0.7-0.7C49.1,302.5,52.1,300.5,53.1,303.4"/>
	<path class="st4" d="M52.8,303.3c0.4,0.7-0.8,0.2-2.1,0.6c-0.2,0.1-1.2,0.5-1.8,0l-0.6-0.5C49.4,302.6,52,301.1,52.8,303.3z"/>
	<path class="st2" d="M57.9,305.7c0,0.6-0.4,1.4,0.5,1.3c1-0.3,2.2-0.9,3.2-1.3c0.2,3.4-3.3,2.7-5.1,2.3c-0.6,1.8-3.3,5.4-5.2,2.9
		c0-0.3,3.2-1.6,3.1-2.2c0.2-0.8-2.1-1.1-1-2.6c0.8-0.7,2.4,1.5,2.8-0.1C56.3,303.9,58.1,304,57.9,305.7"/>
	<path class="st4" d="M57.8,305.9c0,0.5-0.4,1.3,0.5,1.2c1-0.2,2-0.9,3-1.2c0.2,3.2-3.1,2.5-4.8,2.2c-0.5,1.6-3.1,5-4.9,2.6
		c0-0.3,3-1.5,2.9-2c0.2-0.7-2-1.1-1-2.4c0.7-0.7,2.2,1.4,2.6-0.1C56.3,304.2,58,304.3,57.8,305.9z"/>
	<path class="st2" d="M62.5,311.9c0.5,0.8-1.4,1.9-2.5,2.6c-1.2,0.6-3.4,1.5-4.2,1c-0.3-0.2-0.5-0.9-0.1-1.4
		c0.5-0.8,4.3-2.5,5.1-2.8C61.8,310.8,62.2,311.1,62.5,311.9"/>
	<path class="st4" d="M62.2,312.1c0.5,0.7-1.3,1.7-2.3,2.2c-1.1,0.6-3.2,1.3-3.8,0.9c-0.3-0.2-0.5-0.8-0.1-1.2
		c0.5-0.7,4-2.2,4.6-2.4C61.6,311.1,61.9,311.4,62.2,312.1z"/>
	<path class="st2" d="M119.4,353.4c0,0,0,4.6-1.4,4.7c-1.6-0.1-1.5-4.8-1.5-4.8h-4.9c0,0,0,4.7-1.3,4.8c-1.4-0.1-1.5-4.8-1.5-4.8
		h-5.1c0,0,0.1,4.8-1.4,4.9c-1.4-0.2-1.4-4.9-1.4-4.9h-5c0,0,0.3,4.8-1.3,4.9c-1.7-0.2-1.6-4.9-1.6-4.9h-5c0,0,0.3,4.7-1.3,4.6
		c-1.6,0-1.4-4.5-1.4-4.5v-39.5h34V353.4z"/>
</g>
<rect x="88.2" y="316.4" class="st0" width="5" height="6.4"/>
<rect x="95.9" y="316.4" class="st0" width="5" height="6.4"/>
<rect x="103.8" y="316.4" class="st0" width="5.1" height="6.4"/>
<rect x="111.6" y="316.4" class="st0" width="4.9" height="6.4"/>
<g>
	<path class="st2" d="M144.6,328c1.6,5.1,7.1,7.7,8.1,13.1c0.2,4.7-4.8,7-4.2,11.7c1.2,3.4,2.8,5.3,3.7,10.6c1.8,0,2.7-3.7,3.4-4
		c1.1-0.7,2,1.3,2.9,2.6c1.8,3.3,2.1,8.2,0.7,11.6l-2.3,4.4c-0.2,1.1,0.3,3.2-0.9,3.5c-0.6,0.2-1.1-0.2-1.4-0.7
		c-0.3-0.5-0.1-3.3,0.2-3.8c0.4-0.5,4-6.8,3-10.9c-0.4-1.3-0.8-2.3-1.6-3.2c-1.4,1.7-3.4,3-5.6,2.8c-0.8,0-0.7-3.8-1.2-5.3
		c-1-4-4.8-7.7-2.4-12.1c1.4-3,5.4-6,2.4-9.6c-2.2-2.8-4.7-4.8-5.9-8.2C143.2,329.5,143.2,327.8,144.6,328"/>
	<path class="st3" d="M144.9,328.3c1.5,5.1,6.8,7.7,7.8,12.9c0.2,4.6-4.6,7-4.1,11.6c1.2,3.4,2.7,5.2,3.5,10.5c1.7,0,2.6-3.6,3.3-4
		c1.1-0.7,1.9,1.2,2.8,2.6c1.8,3.2,2,8.1,0.7,11.5l-2.2,4.4c-0.2,1.1,0.3,3.2-0.9,3.4c-0.6,0.2-1.1-0.2-1.4-0.7
		c-0.3-0.5-0.1-3.3,0.2-3.7c0.4-0.5,3.9-6.7,2.9-10.7c-0.4-1.3-0.8-2.3-1.5-3.2c-1.4,1.7-3.3,2.9-5.4,2.7c-0.8,0-0.6-3.7-1.2-5.3
		c-1-4-4.6-7.6-2.3-12c1.4-2.9,5.2-5.9,2.3-9.5c-2.1-2.7-4.5-4.7-5.7-8.1C143.5,329.8,143.5,328.1,144.9,328.3z"/>
	<path class="st2" d="M61.8,328.9c-0.2,4.5-3.9,7-6.3,10.6c-3,3.9,4.2,7.4,3.6,12.6c-0.4,3.2-2.1,5.4-3.1,8.4l-1.4,5
		c-0.7,1.1-3-0.4-4.4-1.7c-0.4-0.2-0.7-1.3-1.3-0.6c-1.8,2.6-2,6-1.2,8.9c0.6,2.1,2.8,4,3,5.5c0.2,1.1,0.3,3.8-0.8,4
		c-2.4,0.1-0.8-3-1.6-4.3c-2.3-3.1-3.5-6.7-2.9-11c0.5-2.7,2.1-6,3.7-6.6c1,0,1.2,1.1,2.2,2.3c0.7,0.5,1.8,1.7,1.7,0.9l1.5-4.6
		c1.1-2.9,4.3-6.2,1.5-9.7c-2-3-4.8-6.5-2.6-10.1c2.4-3.6,5.7-6.5,6.9-10.5C61,327,61.8,328.3,61.8,328.9"/>
	<path class="st3" d="M61.5,329.2c-0.2,4.4-3.8,6.9-6.1,10.5c-2.9,3.9,4.1,7.4,3.5,12.4c-0.4,3.2-2,5.4-3,8.3l-1.3,4.9
		c-0.7,1.1-2.9-0.4-4.3-1.7c-0.4-0.2-0.7-1.2-1.3-0.6c-1.7,2.5-1.9,5.9-1.2,8.8c0.6,2.1,2.7,4,2.9,5.5c0.2,1.1,0.3,3.7-0.8,4
		c-2.3,0.1-0.8-3-1.6-4.2c-2.2-3.1-3.4-6.6-2.8-10.9c0.5-2.7,2.1-5.9,3.6-6.5c1,0,1.1,1.1,2.1,2.3c0.6,0.5,1.7,1.7,1.7,0.9l1.4-4.5
		c1-2.9,4.1-6.1,1.4-9.6c-1.9-2.9-4.6-6.4-2.5-10c2.3-3.6,5.5-6.4,6.6-10.4C60.8,327.3,61.5,328.6,61.5,329.2z"/>
</g>
<polygon class="st0" points="88.1,325.5 88.1,332 93.1,332 93.1,325.5 "/>
<rect x="95.9" y="325.5" class="st0" width="5" height="6.5"/>
<polygon class="st0" points="103.8,325.5 103.7,332 108.8,332 108.8,325.5 "/>
<polygon class="st0" points="111.6,325.5 111.6,332 116.5,332 116.5,325.5 "/>
<g>
	<path class="st2" d="M145.9,339.5c0.6,0.2,1.4,0.2,1.4,1.1c0,0.6-0.4,1.1-1,1.1c-2.8-0.6-4.5-3.8-7.1-4.6c-1.4-0.4-2.4,0.9-3,1.9
		l-2.7,6.9c0.8,1.1,3-0.2,3,1.7c0.2,5.9-1.3,11.4-6.3,13.7c-4,2.5-2.4,4.5-3,5.1c-0.4,0.4-1,0.4-1.4,0.2c-0.8-0.8-0.6-2.3-0.4-3.4
		c1.4-3.6,5.8-3.4,7.2-7.2c1.2-2.1,2.1-4.8,1.9-7.6c-0.8-0.6-2.8-0.2-2.8-1.9c0.4-3.6,2-6.8,3.7-9.5c0.8-1.1,1.8-2.1,3-2.1
		C141.4,335.1,143.1,338.7,145.9,339.5"/>
	<path class="st3" d="M145.7,339.7c0.6,0.2,1.4,0.2,1.4,1c0,0.6-0.4,1-1,1c-2.7-0.6-4.4-3.7-6.9-4.6c-1.4-0.4-2.3,0.8-2.9,1.9
		l-2.6,6.8c0.8,1,2.9-0.2,2.9,1.7c0.2,5.8-1.3,11.2-6.1,13.5c-3.9,2.5-2.3,4.4-2.9,5c-0.4,0.4-1,0.4-1.4,0.2
		c-0.8-0.8-0.6-2.3-0.4-3.3c1.4-3.6,5.7-3.3,7-7.1c1.2-2.1,2-4.7,1.8-7.4c-0.8-0.6-2.7-0.2-2.7-1.9c0.4-3.6,2-6.7,3.6-9.3
		c0.8-1,1.8-2.1,2.9-2.1C141.3,335.4,142.9,338.9,145.7,339.7z"/>
	<path class="st2" d="M69.6,337.4l3.5,7c0.5,1.2,0.6,2.6,0,2.8l-2.3,0.9c-0.9,0.2-0.1,7,3,10.1c2.2,2.6,7,3.4,5.8,7.7
		c0,0.4-0.2,1.1-0.6,1.1c-2,0.2-0.9-2.8-1.8-3.4c-2.4-2.6-5.6-3.2-7.1-7.2c-1.2-2.6-1.9-8.4-1.5-9.3c0.6-1.1,3.2-0.4,2.7-1.7
		l-3.1-6.8c-0.8-1.1-1.7-1.9-3-1.1c-2.4,1.1-3.2,3.4-5.9,3.8c-1,0.2-1.7-1.1-1-1.6l1.3-0.6c3-1.3,3.2-2.5,6-3.9
		C66.8,334.4,68.6,335.2,69.6,337.4"/>
	<path class="st3" d="M69.6,337.6l3.4,6.9c0.5,1.2,0.6,2.5,0,2.7l-2.3,0.9c-0.9,0.2-0.1,6.9,2.9,9.9c2.1,2.5,6.8,3.3,5.7,7.5
		c0,0.4-0.2,1-0.6,1c-2,0.2-0.9-2.8-1.8-3.3c-2.3-2.5-5.4-3.1-6.9-7.1c-1.2-2.5-1.9-8.3-1.5-9.1c0.6-1,3.1-0.4,2.6-1.7l-3-6.7
		c-0.8-1-1.6-1.9-2.9-1c-2.3,1-3.2,3.3-5.7,3.7c-1,0.2-1.7-1.1-1-1.6l1.3-0.6c2.9-1.3,3.1-2.5,5.8-3.9
		C66.9,334.7,68.6,335.5,69.6,337.6z"/>
</g>
<rect x="88.1" y="334.6" class="st0" width="5" height="6.5"/>
<rect x="95.9" y="334.6" class="st0" width="5" height="6.5"/>
<polygon class="st0" points="103.7,334.6 103.8,341.1 108.8,341.1 108.8,334.6 "/>
<rect x="111.6" y="334.6" class="st0" width="4.9" height="6.5"/>
<g>
	<path class="st2" d="M130.4,339.6c0.7,13-6.7,24.8-17.5,32.3c-3.4,2.3-6.2,4-10.6,5.2c-11.9-4.6-25.3-16.7-27.2-30.9
		c-0.4-2.8-0.8-5.1-0.4-8.1c1,0.2,2,0.1,2.8,0.3c-0.8,13.4,6.4,24.4,17,31.2c2.6,1.5,5.2,3,7.8,3.8c11.2-4,22.9-15.1,24.7-27.9
		c0.4-2.6,0.5-4.7,0.3-7.2c0.9-0.2,1.8-0.2,2.7-0.4L130.4,339.6z"/>
	<path class="st3" d="M130.1,339.9c0.7,12.8-6.6,24.4-17.3,31.8c-3.4,2.3-6.1,4-10.5,5.1c-11.8-4.5-25.1-16.4-26.9-30.4
		c-0.4-2.7-0.8-5.1-0.4-8c1,0.2,2,0.1,2.8,0.3c-0.8,13.2,6.3,24,16.8,30.7c2.6,1.5,5.2,2.9,7.7,3.8c11.1-4,22.7-14.9,24.4-27.4
		c0.4-2.5,0.5-4.6,0.3-7.1c0.9-0.2,1.8-0.2,2.7-0.4L130.1,339.9z"/>
</g>
<rect x="88.1" y="343.7" class="st0" width="5" height="6.4"/>
<polygon class="st0" points="95.9,343.7 95.9,350.1 100.9,350.1 100.9,343.7 "/>
<polygon class="st0" points="103.7,343.7 103.7,350.1 108.8,350.1 108.8,343.7 "/>
<polygon class="st0" points="111.6,350.1 116.5,350.1 116.5,343.7 111.6,343.7 "/>
<g>
	<path class="st2" d="M146,344.6c0.2,0.4,0.2,1.1-0.2,1.3c-1.4,0.4-2.9-0.2-3.9,1.7c-1.8,2.6-0.4,6,0.6,8.5c0.2,0.7-0.6,1.1-1.2,0.8
		c-1.2-0.2-1.4-1.9-1.8-2.8c-1-2.8-0.8-6.6,1.2-8.7C142.1,343.8,145.4,343.7,146,344.6"/>
	<path class="st3" d="M145.7,344.9c0.2,0.4,0.2,1-0.2,1.2c-1.3,0.4-2.7-0.2-3.6,1.6c-1.7,2.4-0.4,5.7,0.6,8.1c0.2,0.7-0.6,1-1.1,0.8
		c-1.1-0.2-1.3-1.8-1.7-2.7c-0.9-2.6-0.7-6.3,1.1-8.3C142.1,344.1,145.2,344,145.7,344.9z"/>
	<path class="st2" d="M64.9,345.9c1.8,2.3,1.8,6,0.8,8.7c-0.4,1-0.9,3.1-2.7,2.6l-0.5-0.7c-0.5-1.2,3.3-6.9,0.5-9.4
		c-1.5-1.7-3.9,1.2-3.8-1.9C59.1,343.9,62.8,343.7,64.9,345.9"/>
	<path class="st3" d="M64.7,346.1c1.7,2.2,1.7,5.7,0.7,8.4c-0.4,1-0.8,2.9-2.5,2.5l-0.4-0.7c-0.4-1.1,3.1-6.6,0.4-9
		c-1.4-1.6-3.6,1.1-3.5-1.9C59.4,344.2,62.8,344,64.7,346.1z"/>
	<path class="st2" d="M138.8,359.1c0,1.4-0.9,1.3-1.4,1.9c-1.6,2.1-1.6,5.5-4.4,6.4c-1,0.2-2.1,0.3-2.8-0.2
		c-0.4-0.4-0.4-1.1-0.2-1.5c0.6-1.1,1.8-0.1,2.6-0.5c2.4-1.7,1.8-5.5,4.6-7C137.9,358,138.6,357.8,138.8,359.1"/>
	<path class="st3" d="M138.5,359.3c0,1.3-0.9,1.3-1.3,1.8c-1.5,2-1.5,5.2-4.1,6c-0.9,0.2-2,0.2-2.6-0.2c-0.4-0.4-0.4-1-0.2-1.4
		c0.6-1,1.7-0.1,2.4-0.4c2.2-1.6,1.7-5.2,4.3-6.6C137.6,358.3,138.3,358.1,138.5,359.3z"/>
	<path class="st2" d="M71.3,364.3c0.8,1.9,4.7-0.4,3.9,2.8c-0.5,0.5-2.3,0.2-3.3,0c-3.2-1.3-2.5-5.3-5.3-7c-0.5-0.4-0.4-1.7,0.4-1.7
		C70.2,358.6,70,361.9,71.3,364.3"/>
	<path class="st3" d="M71.3,364.2c0.8,1.8,4.4-0.4,3.7,2.7c-0.5,0.5-2.2,0.2-3.1,0c-3-1.2-2.3-5-5-6.6c-0.5-0.4-0.4-1.6,0.4-1.6
		C70.2,358.9,70.1,361.9,71.3,364.2z"/>
	<path class="st2" d="M110.1,361.3c0.2,1-0.9,2.2-1.7,2.3c-1,0.3-1.6-0.8-2.1-1.6c0,0-0.7-1.6-0.1-1
		C107.2,361.9,109.3,360,110.1,361.3"/>
	<path class="st4" d="M109.8,361.5c0.2,0.8-0.8,1.7-1.5,1.9c-0.8,0.2-1.4-0.6-1.8-1.2c0,0-0.6-1.3-0.1-0.8
		C107.3,362,109.2,360.5,109.8,361.5z"/>
	<path class="st2" d="M99.1,361c0.5,1-0.7,2.2-1.4,2.4c-0.7,0.3-1.9,0-2.4-1c-0.2-0.3-0.2-1,0-1.5C95.6,359.9,97.9,362,99.1,361"/>
	<path class="st4" d="M98.8,361.2c0.4,0.8-0.6,1.7-1.2,1.9c-0.6,0.2-1.6,0-2.1-0.8c-0.2-0.2-0.2-0.8,0-1.2
		C95.8,360.3,97.8,362,98.8,361.2z"/>
	<path class="st2" d="M102.2,370.2c-2.2-1.2-2.9-6.6,0-9.1C105.3,363,104.8,369.2,102.2,370.2"/>
	<path class="st4" d="M102.2,369.9c-1.9-1.1-2.5-6.1,0-8.4C104.9,363.2,104.4,369,102.2,369.9z"/>
</g>
<polygon class="st2" points="94.4,262 96.6,264.8 98.9,262 96.6,259.2 "/>
<polygon class="st3" points="96.6,259.6 94.8,262 96.6,264.3 98.6,262 "/>
<polygon class="st2" points="105.8,262 108.1,264.8 110.4,262 108.1,259.2 "/>
<polygon class="st3" points="108.1,259.6 106.2,262 108.1,264.3 110,262 "/>
<g>
	<path class="st2" d="M125.8,294.3c0.6,0.5,0.8-1.9,1.8-1.9l2,1.9c0.2,0.9-2.6,1.7-1.7,4.1c2.2,4.3,6.4,8.3,10.2,10.6
		c1,0.7-1.4,3-1.4,4.9c1,0.5,3.3,0.4,3.3,1.9c1.1,8.2-15.9,8-13.3,16.9c0.5,1.1,1.8,0.8,2.4,0.3c0.8-0.5,0.6-3.1,1.2-4.6
		c1-2.3,3.6-2.6,6-2.6c1.4,0.2,0.5,3.2,2.2,2.6c2-2.1,2.2-5.3,4.6-6.8c0.6-0.2,1.2,0,1.4,0.6c-0.2,1.5-1.4,2.8-2.2,4
		c-0.8,1.5-1.4,3.5-3.2,4.1c-0.8,0.4-2,0.4-2.6-0.2c-1-0.6-0.4-2.1-1.6-2.3c-1.2,0-2.4,0.2-3,1.5c-0.8,1.9,0.1,5.3-2.6,5.9
		c-1.4,0.2-3.1,0.6-4.1-0.9c-0.9-1.3-1.5-6.9,2.4-9.7v-14.6h-21.4c0.6-1.3,2.4-2,3.8-2.2h9.5c0.8-1.5,1.6-4.5,1.6-4.5
		c0.3-0.8-0.6-1.3-0.9-2.2c-0.2-0.6-0.3-1.1-0.3-1.8c0.1-1.9,0.9-2.9,2.3-4.5c0.8-0.6,2.3-1.9,3-1.3L125.8,294.3z"/>
	<path class="st3" d="M125.8,294.5c0.6,0.5,0.8-1.9,1.7-1.9l1.9,1.9c0.2,0.8-2.6,1.7-1.6,4c2.2,4.2,6.2,8.2,10,10.5
		c1,0.6-1.4,3-1.4,4.8c1,0.5,3.2,0.4,3.3,1.9c1.1,8.1-15.5,7.9-13.1,16.7c0.5,1.1,1.8,0.8,2.3,0.3c0.8-0.5,0.6-3.1,1.1-4.5
		c1-2.3,3.5-2.5,5.9-2.5c1.4,0.2,0.5,3.2,2.2,2.5c2-2.1,2.2-5.3,4.5-6.7c0.6-0.2,1.2,0,1.4,0.6c-0.2,1.5-1.3,2.7-2.1,3.9
		c-0.8,1.5-1.4,3.4-3.2,4.1c-0.8,0.4-2,0.4-2.6-0.2c-1-0.6-0.4-2.1-1.6-2.3c-1.2,0-2.4,0.2-3,1.5c-0.8,1.9,0.1,5.2-2.6,5.8
		c-1.4,0.2-3,0.6-4-0.9c-0.9-1.3-1.4-6.8,2.3-9.5v-14.4h-20.9c0.6-1.3,2.4-2,3.7-2.2h9.3c0.8-1.4,1.6-4.4,1.6-4.4
		c0.3-0.8-0.6-1.3-0.9-2.2c-0.2-0.6-0.3-1.1-0.3-1.8c0.1-1.9,0.9-2.9,2.3-4.4c0.8-0.6,2.2-1.9,3-1.3L125.8,294.5z"/>
	<path class="st0" d="M121.9,307.6l8.2,0l0.1,15.3l0.2-0.1c3-1.4,5.2-2.1,7.2-4.7c1.8-2.7-1.8-2.1-2.8-2.8c-1-0.7,0.8-3.2,1-5.1
		c-5.2-2.8-9-8.7-11.2-14c-1-1.1-2.3,1.1-2.6,2.1c-0.4,0.9,0.2,1.9,1,2.6c0.6,0.4,1,1.3,0.6,2.2c-0.8,1.9-0.9,2.5-0.9,2.5
		C122.3,306.3,122.1,307.8,121.9,307.6"/>
	<path class="st3" d="M122.7,307.6l7.7,0l0.1,14.8l0.2-0.1c2.8-1.4,4.8-2,6.7-4.5c1.7-2.6-1.7-2.1-2.6-2.7c-1-0.7,0.7-3.1,0.9-5
		c-4.9-2.7-8.4-8.5-10.5-13.6c-0.9-1-2.2,1.1-2.4,2.1c-0.4,0.8,0.2,1.9,0.9,2.5c0.6,0.4,0.9,1.3,0.5,2.1c-0.7,1.8-0.8,2.4-0.8,2.4
		C123.1,306.2,122.9,307.7,122.7,307.6z"/>
	<path class="st0" d="M81.6,302.6c-0.4-1.7,2-1.8,1.6-3.5c-0.4-1.4-1.8-3.3-2.4-2.9c-1.4,1.7-2,4.3-3.4,6.4c-2,3.2-5,6-8,7.7
		c-0.5,0.6,1.7,4.2,1.2,5.1c-1,0.6-3.6,0-3,1.9c1.6,3,4.6,4.5,7.4,5.8v-0.5v-15h8.3L81.6,302.6z"/>
	<path class="st3" d="M81.3,302.7c-0.4-1.7,1.9-1.8,1.5-3.4c-0.4-1.4-1.7-3.2-2.3-2.8c-1.3,1.7-1.9,4.1-3.3,6.2
		c-1.9,3.1-4.8,5.8-7.7,7.5c-0.5,0.6,1.7,4.1,1.2,5c-1,0.6-3.5,0-2.9,1.9c1.5,2.9,4.4,4.4,7.1,5.6v-0.5v-14.6h8L81.3,302.7z"/>
	<path class="st2" d="M93.9,284c0-1.2,0.9-2.1,2-2.1s2,1,2,2.1c0,1.2-0.9,2.1-2,2.1S93.9,285.2,93.9,284"/>
	<path class="st2" d="M146.3,299.5c0.5,1.2,1.9,1.1,2.6,2.4c0.5,0.2,0.8-0.7,0.8-0.7c0.3-2-2.1-3-3.4-3.5
		C146.1,297.9,146,299.3,146.3,299.5"/>
	<path class="st4" d="M146.5,299.6c0.4,1,1.6,1,2.2,2.1c0.4,0.2,0.7-0.6,0.7-0.6c0.2-1.7-1.7-2.5-2.8-3
		C146.4,298.3,146.3,299.4,146.5,299.6z"/>
	<path class="st2" d="M152.3,303.6c-0.4,0.9,1,0.2,2.4,0.8c0.3,0.2,1.4,0.7,2.1,0l0.7-0.7C156.3,302.7,153.3,300.7,152.3,303.6"/>
	<path class="st4" d="M152.6,303.5c-0.4,0.7,0.8,0.2,2.1,0.6c0.2,0.1,1.2,0.5,1.8,0l0.6-0.5C156,302.8,153.4,301.3,152.6,303.5z"/>
	<path class="st2" d="M147.5,305.9c0,0.6,0.4,1.4-0.5,1.3c-1-0.3-2.2-0.9-3.2-1.3c-0.2,3.4,3.3,2.7,5.1,2.3c0.6,1.8,3.3,5.4,5.2,2.9
		c0-0.3-3.2-1.6-3.1-2.2c-0.2-0.8,2.1-1.1,1-2.6c-0.8-0.7-2.4,1.5-2.8-0.1C149.1,304.1,147.2,304.2,147.5,305.9"/>
	<path class="st4" d="M147.6,306.1c0,0.5,0.4,1.3-0.5,1.2c-1-0.2-2-0.9-3-1.2c-0.2,3.2,3.1,2.5,4.8,2.2c0.5,1.6,3.1,5,4.9,2.6
		c0-0.3-3-1.5-2.9-2c-0.2-0.7,2-1.1,0.9-2.4c-0.7-0.7-2.2,1.4-2.6-0.1C149.1,304.4,147.3,304.5,147.6,306.1z"/>
	<path class="st2" d="M142.8,312.1c-0.5,0.8,1.4,2,2.5,2.6c1.2,0.6,3.4,1.5,4.2,1c0.3-0.2,0.5-0.9,0.1-1.4c-0.5-0.8-4.3-2.5-5.1-2.8
		C143.6,311,143.2,311.3,142.8,312.1"/>
	<path class="st4" d="M143.1,312.3c-0.5,0.7,1.3,1.7,2.3,2.2c1.1,0.6,3.2,1.3,3.8,0.9c0.3-0.2,0.5-0.8,0.1-1.2
		c-0.5-0.7-4-2.2-4.6-2.4C143.8,311.3,143.4,311.6,143.1,312.3z"/>
	<path class="st2" d="M100.4,283.3c0-1.2,0.9-2.1,2-2.1c1.1,0,2,1,2,2.1s-0.9,2.1-2,2.1C101.3,285.4,100.4,284.5,100.4,283.3"/>
	<path class="st2" d="M106.9,284c0-1.2,0.9-2.1,2-2.1s2,1,2,2.1s-0.9,2.1-2,2.1S106.9,285.2,106.9,284"/>
</g>
</svg>
